<svg xmlns="http://www.w3.org/2000/svg" width="790" height="480" viewBox="0 0 790 480"><rect width="790" height="480" fill="#e8eef8"/><text x="36" y="39" fill="#41649b" font-family="monospace" font-size="9" letter-spacing="2">DEV.LOG / VISUAL NOTES</text><text x="754" y="39" text-anchor="end" fill="#41649b" font-family="monospace" font-size="9">2026 — 01</text><rect x="130" y="95" width="530" height="310" rx="15" fill="#ffffff"/><path d="M130 133 H660" stroke="#e2e8f0"/><circle cx="152" cy="114" r="4" fill="#98b6de"/><circle cx="167" cy="114" r="4" fill="#98b6de"/><circle cx="182" cy="114" r="4" fill="#98b6de"/><text x="163" y="177" font-size="20" font-weight="700" font-family="Arial" fill="#41649b">dev.log ✳</text><rect x="163" y="204" width="265" height="12" rx="4" fill="#41649b" opacity=".8"/><rect x="163" y="227" width="195" height="9" rx="4" fill="#98b6de"/><rect x="163" y="269" width="220" height="103" rx="9" fill="#e9ecff"/><rect x="402" y="269" width="225" height="103" rx="9" fill="#e5eeeb"/><path d="M210 320 h125 M271 287 v66" stroke="#909dda" stroke-width="15"/><circle cx="515" cy="320" r="33" fill="none" stroke="#9bbcac" stroke-width="13"/><text x="36" y="434" fill="#41649b" font-family="Arial" font-weight="700" font-size="16" letter-spacing="1">A PLACE FOR MY THOUGHTS</text><text x="36" y="455" fill="#41649b" font-family="Arial" font-size="10" opacity=".7">Designing a personal knowledge space</text><text x="742" y="450" fill="#41649b" font-size="30">✳</text></svg>